<?xml version="1.0" encoding="utf-8"?>
<!-- Generator: Adobe Illustrator 17.1.0, SVG Export Plug-In . SVG Version: 6.00 Build 0)  -->
<!DOCTYPE svg PUBLIC "-//W3C//DTD SVG 1.1//EN" "http://www.w3.org/Graphics/SVG/1.1/DTD/svg11.dtd">
<svg version="1.1" id="Layer_1" xmlns="http://www.w3.org/2000/svg" xmlns:xlink="http://www.w3.org/1999/xlink" x="0px" y="0px"
	 viewBox="0 0 32 32" enable-background="new 0 0 32 32" xml:space="preserve">
<g>
	<g>
		<g>
			<path fill="#2BA9E0" d="M12.545,14.369c0.062,0.019,0.125,0.038,0.187,0.057C12.67,14.407,12.607,14.388,12.545,14.369z"/>
			<path fill="#2BA9E0" d="M13.692,14.741c0.056,0.019,0.111,0.039,0.166,0.058C13.803,14.779,13.748,14.76,13.692,14.741z"/>
			<path fill="#2BA9E0" d="M12.869,14.47c0.224,0.071,0.444,0.143,0.66,0.216C13.313,14.613,13.093,14.541,12.869,14.47z"/>
			<path fill="#2BA9E0" d="M15.197,15.299c-0.002-0.001-0.004-0.002-0.006-0.002C15.193,15.297,15.195,15.298,15.197,15.299
				c0.002,0.001,0.003,0.001,0.005,0.002c0.106,0.043,0.217,0.087,0.332,0.133c0.001,0,0.001,0.001,0.002,0.001
				c0.007,0.003,0.015,0.006,0.022,0.009c0.003,0.001,0.006,0.002,0.009,0.003C15.439,15.396,15.315,15.346,15.197,15.299z"/>
			<path fill="#2BA9E0" d="M11.472,14.056c0.267,0.074,0.532,0.15,0.792,0.228C12.003,14.206,11.74,14.13,11.472,14.056z"/>
			<path fill="#2BA9E0" d="M14.164,14.906c0.056,0.02,0.112,0.04,0.167,0.061C14.275,14.947,14.22,14.926,14.164,14.906z"/>
			<path fill="#2BA9E0" d="M14.634,15.08c0.048,0.018,0.096,0.036,0.143,0.054C14.729,15.116,14.681,15.098,14.634,15.08z"/>
			<path fill="#2BA9E0" d="M4.004,20.485c0.656-2.825,2.177-5.322,4.119-7.195c-3.752-0.67-7.286-0.612-7.996,1.266
				c-0.501,1.324,0.524,3.323,2.283,5.294c0.482,0.541,1.035,0.738,1.564,0.76L4.004,20.485z"/>
			<path fill="#2BA9E0" d="M10.234,13.736c0.076,0.018,0.152,0.036,0.228,0.055C10.386,13.772,10.31,13.754,10.234,13.736z"/>
			<path fill="#2BA9E0" d="M8.169,13.299c0.276,0.05,0.552,0.104,0.829,0.161C8.721,13.402,8.444,13.348,8.169,13.299z"/>
			<path fill="#2BA9E0" d="M10.556,13.815c0.263,0.066,0.524,0.134,0.783,0.205C11.08,13.949,10.819,13.881,10.556,13.815z"/>
			<path fill="#2BA9E0" d="M9.116,13.483c0.284,0.06,0.568,0.123,0.851,0.189C9.684,13.606,9.4,13.543,9.116,13.483z"/>
		</g>
		<g>
			<path fill="#F69322" d="M31.867,14.556c-0.71-1.878-4.244-1.936-7.996-1.266c1.942,1.873,3.463,4.369,4.119,7.195l0.03,0.125
				c0.529-0.022,1.081-0.219,1.564-0.76C31.343,17.878,32.368,15.88,31.867,14.556z"/>
		</g>
	</g>
	<path fill="#0E73BA" d="M15.997,15.616C13.564,16,9.421,18.098,6.021,19.997c-0.267,0.149-1.12,0.652-2.047,0.613l0.03-0.125
		c0.656-2.825,2.177-5.322,4.119-7.195c0.313,0.056,0.628,0.117,0.943,0.183c0.003,0.001,0.005,0.001,0.008,0.002
		c0.002,0,0.004,0.001,0.006,0.001c0.313,0.065,0.627,0.135,0.939,0.208c0.002,0,0.004,0.001,0.005,0.001l0,0
		c0.156,0.037,0.311,0.074,0.465,0.113c0.004,0.001,0.008,0.002,0.011,0.003c0.305,0.076,0.608,0.155,0.907,0.238
		c0.009,0.003,0.018,0.005,0.028,0.008c0.002,0.001,0.005,0.001,0.007,0.002c0.294,0.081,0.585,0.165,0.871,0.251
		c0.004,0.001,0.008,0.002,0.012,0.003c0.007,0.002,0.013,0.004,0.02,0.006c0.139,0.042,0.276,0.084,0.412,0.127
		c0.006,0.002,0.011,0.004,0.017,0.005c0.01,0.003,0.021,0.007,0.031,0.01c0.27,0.085,0.535,0.172,0.794,0.26
		c0.009,0.003,0.017,0.006,0.026,0.009c0.013,0.004,0.025,0.009,0.038,0.013c0.125,0.043,0.248,0.085,0.369,0.128
		c0.014,0.005,0.028,0.01,0.042,0.015c0.112,0.04,0.223,0.08,0.333,0.121c0.015,0.006,0.031,0.011,0.046,0.017
		c0.003,0.001,0.005,0.002,0.008,0.003c0.114,0.042,0.227,0.085,0.337,0.127c0.008,0.003,0.016,0.006,0.025,0.01
		c0.014,0.006,0.029,0.011,0.043,0.017c0.112,0.044,0.224,0.087,0.332,0.131c0.002,0.001,0.003,0.001,0.005,0.002
		c0.106,0.043,0.217,0.087,0.332,0.133c0.001,0,0.001,0.001,0.002,0.001c0.007,0.003,0.015,0.006,0.022,0.009"/>
	<path fill="#FFF200" d="M15.997,15.616c2.434,0.384,6.576,2.483,9.976,4.381c0.267,0.149,1.12,0.652,2.047,0.613l-0.03-0.125
		c-0.656-2.825-2.177-5.322-4.119-7.195c-0.313,0.056-0.628,0.117-0.943,0.183c-0.003,0.001-0.005,0.001-0.008,0.002
		c-0.002,0-0.004,0.001-0.006,0.001c-0.313,0.065-0.627,0.135-0.939,0.208c-0.002,0-0.004,0.001-0.005,0.001l0,0
		c-0.156,0.037-0.311,0.074-0.465,0.113c-0.004,0.001-0.008,0.002-0.011,0.003c-0.305,0.076-0.608,0.155-0.907,0.238
		c-0.009,0.003-0.018,0.005-0.028,0.008c-0.002,0.001-0.005,0.001-0.007,0.002c-0.294,0.081-0.585,0.165-0.871,0.251
		c-0.004,0.001-0.008,0.002-0.012,0.003c-0.007,0.002-0.013,0.004-0.02,0.006c-0.139,0.042-0.276,0.084-0.412,0.127
		c-0.006,0.002-0.011,0.004-0.017,0.005c-0.01,0.003-0.021,0.007-0.031,0.01c-0.27,0.085-0.535,0.172-0.794,0.26
		c-0.009,0.003-0.017,0.006-0.026,0.009c-0.013,0.004-0.025,0.009-0.038,0.013c-0.125,0.043-0.248,0.085-0.369,0.128
		c-0.014,0.005-0.028,0.01-0.042,0.015c-0.112,0.04-0.223,0.08-0.333,0.121c-0.015,0.006-0.031,0.011-0.046,0.017
		c-0.003,0.001-0.005,0.002-0.008,0.003c-0.114,0.042-0.227,0.085-0.337,0.127c-0.008,0.003-0.016,0.006-0.025,0.01
		c-0.014,0.006-0.029,0.011-0.043,0.017c-0.112,0.044-0.224,0.087-0.332,0.131c-0.002,0.001-0.003,0.001-0.005,0.002
		c-0.106,0.043-0.217,0.087-0.332,0.133c-0.001,0-0.001,0.001-0.002,0.001c-0.007,0.003-0.015,0.006-0.022,0.009L15.997,15.616z"/>
	<g>
		<rect x="23.87" y="13.289" fill="#8CC542" width="0" height="0.002"/>
		<path fill="#8CC542" d="M16.426,15.447c0.129-0.051,0.253-0.1,0.371-0.148c1.927-0.778,4.548-1.558,7.071-2.009
			c-2.283-2.201-5.147-3.543-7.871-3.543c-2.724,0-5.59,1.341-7.873,3.543c2.524,0.451,5.146,1.231,7.073,2.009
			c0.244,0.098,0.513,0.204,0.8,0.317c0.064-0.025,0.123-0.048,0.185-0.073L16.426,15.447z"/>
	</g>
</g>
</svg>
